<?xml version="1.0" encoding="UTF-8"?><svg id="Layer_6" xmlns="http://www.w3.org/2000/svg" viewBox="0 0 448.85 471.06"><defs><style>.cls-1{fill:#b0dbe7;}</style></defs><path class="cls-1" d="m328.06,352.79l-82.93-28.34c-2.96-1.01-6.23-.5-8.75,1.36l-70.36,52.25c-6.33,4.7-15.3.1-15.18-7.78l1.33-87.63c.05-3.13-1.45-6.08-4-7.9l-71.43-50.77c-6.43-4.57-4.82-14.52,2.71-16.84l83.75-25.81c2.99-.92,5.34-3.26,6.27-6.24l26.21-83.63c2.36-7.52,12.32-9.07,16.85-2.63l50.43,71.67c1.8,2.56,4.75,4.07,7.88,4.04l87.63-.91c7.88-.08,12.44,8.91,7.71,15.22l-52.58,70.11c-1.88,2.5-2.4,5.77-1.41,8.74l27.95,83.06c2.51,7.47-4.63,14.58-12.09,12.03Z"/></svg>