<?xml version="1.0" encoding="UTF-8"?><svg id="Layer_6" xmlns="http://www.w3.org/2000/svg" viewBox="0 0 448.85 471.06"><defs><style>.cls-1{fill:#b0dbe7;}</style></defs><path class="cls-1" d="m288.97,376.24l-71.87-50.14c-2.57-1.79-5.85-2.2-8.78-1.1l-82.05,30.78c-7.38,2.77-14.73-4.13-12.44-11.67l25.48-83.85c.91-3,.29-6.25-1.66-8.69l-54.63-68.53c-4.91-6.16-.63-15.29,7.25-15.44l87.62-1.68c3.13-.06,6.03-1.66,7.75-4.27l48.29-73.13c4.34-6.58,14.34-5.32,16.92,2.13l28.67,82.81c1.02,2.96,3.44,5.22,6.46,6.06l84.48,23.33c7.6,2.1,9.49,12,3.21,16.75l-69.9,52.86c-2.5,1.89-3.9,4.88-3.76,8.01l3.92,87.55c.35,7.88-8.48,12.74-14.94,8.23Z"/></svg>